<svg width="50" height="50" viewBox="0 0 50 50" fill="none" xmlns="http://www.w3.org/2000/svg">
<g clipPath="url(#clip0_15_282)">
<path d="M49.0385 25C49.0385 38.276 38.276 49.0385 25 49.0385C11.7239 49.0385 0.961548 38.276 0.961548 25C0.961548 11.7239 11.7239 0.961548 25 0.961548C38.276 0.961548 49.0385 11.7239 49.0385 25Z" fill="#21D789"/>
<path fillRule="evenodd" clipRule="evenodd" d="M18.8862 16.6898C31.8669 16.6898 31.8669 16.6898 31.8669 16.6898C32.6636 16.6898 33.3092 17.3356 33.3092 18.1321C33.3092 31.1128 33.3092 31.1124 33.3092 31.1124C33.3092 31.9091 32.6636 32.5547 31.8669 32.5547C31.0703 32.5547 30.4246 31.9091 30.4246 31.1124C30.4246 21.6138 30.4246 21.6139 30.4246 21.6139L19.8374 32.2012L17.7979 30.1617L28.3851 19.5744H18.8862C18.0896 19.5744 17.4438 18.9287 17.4438 18.1321C17.4438 17.3356 18.0896 16.6898 18.8862 16.6898Z" fill="white" stroke="#F2F3F7" strokeWidth="0.961538"/>
</g>
<defs>
<clipPath id="clip0_15_282">
<rect width="50" height="50" fill="white"/>
</clipPath>
</defs>
</svg>
