<svg width="180" height="32" viewBox="0 0 180 32" fill="none" xmlns="http://www.w3.org/2000/svg">
<path d="M6 28L4 3H28L26 28L16 31L6 28Z" fill="#E44D26"/>
<path d="M26 5H16V29.5L24 27L26 5Z" fill="#F16529"/>
<path d="M9.5 17.5L8.5 8H24L23.5 11H11.5L12 14.5H23L22 24L16 26L10 24L9.5 19H12.5L13 21.5L16 22.5L19 21.5L19.5 17.5H9.5Z" fill="white"/>
<path d="M43 28L41 3H65L63 28L53 31L43 28Z" fill="#1172B8"/>
<path d="M63 5H53V29.5L61 27L63 5Z" fill="#33AADD"/>
<path d="M56.5 17.5H46.5L46 14L54 11.5H46L45.5 8.5H61L60.5 12L54 14.5H60L59 24L53 26L47 24L46.5 19H49.5L50 21.5L53 22.5L56 21.5L56.5 17.5Z" fill="white"/>
<rect x="76" y="2" width="28" height="28" fill="#FFCA28"/>
<path d="M93 25.2877L95.0615 23.9236C95.2231 24.4311 96.2462 25.6366 97.5385 25.6366C98.8308 25.6366 99.4308 24.9308 99.4308 24.4629C99.4308 23.1877 98.1112 22.7381 97.4774 22.5221C97.374 22.4869 97.289 22.4579 97.2308 22.4326C97.2009 22.4196 97.1558 22.4023 97.0979 22.3802C96.393 22.1109 93.7923 21.1173 93.7923 18.2372C93.7923 15.0648 96.8538 14.7 97.5462 14.7C97.9991 14.7 100.177 14.7555 101.262 16.7938L99.2615 18.1896C98.8231 17.3013 98.0946 17.0079 97.6462 17.0079C96.5385 17.0079 96.3077 17.82 96.3077 18.1896C96.3077 19.2268 97.5112 19.6917 98.5273 20.0842C98.7932 20.1869 99.0462 20.2847 99.2615 20.3864C100.369 20.9099 102 21.7664 102 24.4629C102 25.8134 100.867 28 98.0154 28C94.1846 28 93.1692 25.7001 93 25.2877Z" fill="#3E3E3E"/>
<path d="M83 25.5586L85.1487 24.1951C85.317 24.7025 85.9713 25.6378 86.9205 25.6378C87.8698 25.6378 88.3557 24.6628 88.3557 24.1951V15H90.9982V24.1951C91.041 25.4634 90.3376 28 87.2332 28C84.379 28 83.1924 26.3037 83 25.5586Z" fill="#3E3E3E"/>
<path d="M129.679 15.9759C129.679 14.5415 128.48 13.3785 127 13.3785C125.521 13.3785 124.321 14.5415 124.321 15.9759C124.321 17.4105 125.521 18.5734 127 18.5734C128.48 18.5734 129.679 17.4105 129.679 15.9759Z" fill="#53C1DE"/>
<path fill-rule="evenodd" clip-rule="evenodd" d="M135.7 11.1537C136.266 8.92478 136.977 4.79148 134.47 3.39016C131.975 1.99495 128.728 4.66843 127.014 6.27318C125.304 4.68442 121.966 2.02237 119.462 3.42814C116.968 4.82803 117.737 8.8928 118.315 11.1357C115.988 11.7764 112 13.1564 112 15.9759C112 18.7874 115.984 20.2888 118.297 20.9289C117.717 23.1842 116.986 27.1909 119.483 28.5877C121.997 29.9932 125.325 27.3945 127.055 25.7722C128.781 27.3864 131.997 30.0021 134.492 28.6014C136.996 27.1963 136.344 23.1184 135.765 20.8625C138.007 20.221 142 18.7523 142 15.9759C142 13.1835 137.99 11.7923 135.7 11.1537ZM135.416 19.667C135.037 18.5016 134.524 17.2623 133.897 15.9821C134.495 14.7321 134.988 13.5088 135.357 12.3509C137.036 12.8228 140.719 13.9013 140.719 15.9759C140.719 18.07 137.185 19.1587 135.416 19.667ZM133.85 27.526C131.988 28.571 129.222 26.0696 127.948 24.8809C128.793 23.9844 129.638 22.9422 130.462 21.7849C131.913 21.6602 133.283 21.4562 134.526 21.1777C134.933 22.7734 135.72 26.4763 133.85 27.526ZM120.124 27.5111C118.261 26.47 119.113 22.8946 119.54 21.2333C120.768 21.4969 122.129 21.6865 123.582 21.8008C124.412 22.9332 125.282 23.9741 126.158 24.8857C125.075 25.9008 121.995 28.557 120.124 27.5111ZM113.281 15.9759C113.281 13.874 116.942 12.8033 118.659 12.3326C119.035 13.5165 119.527 14.7544 120.121 16.0062C119.519 17.2766 119.02 18.5341 118.641 19.732C117.004 19.2776 113.281 18.0791 113.281 15.9759ZM120.104 4.50354C121.974 3.45416 124.875 6.00983 126.116 7.16013C125.244 8.06754 124.383 9.1006 123.56 10.2265C122.149 10.3533 120.799 10.5569 119.557 10.8297C119.091 9.02071 118.236 5.55179 120.104 4.50354ZM131.379 11.5771C132.337 11.6942 133.254 11.85 134.115 12.0406C133.856 12.844 133.534 13.6841 133.155 14.5453C132.604 13.5333 132.014 12.5416 131.379 11.5771ZM127.014 8.0481C127.605 8.66897 128.197 9.3623 128.78 10.1145C127.599 10.0603 126.415 10.0601 125.234 10.1137C125.817 9.36848 126.414 8.67618 127.014 8.0481ZM120.857 14.5444C120.483 13.6862 120.164 12.8424 119.903 12.0275C120.759 11.8418 121.672 11.69 122.623 11.5748C121.987 12.5372 121.397 13.5285 120.857 14.5444ZM122.65 20.4657C121.668 20.3594 120.741 20.2153 119.886 20.0347C120.15 19.2055 120.477 18.3435 120.858 17.4668C121.406 18.4933 122.004 19.4942 122.65 20.4657ZM127.05 23.9915C126.442 23.356 125.837 22.6531 125.245 21.8971C126.433 21.9423 127.623 21.9424 128.811 21.891C128.227 22.6608 127.637 23.3647 127.05 23.9915ZM133.167 17.4222C133.568 18.3084 133.906 19.1657 134.174 19.9809C133.304 20.1734 132.365 20.3284 131.376 20.4435C132.015 19.4607 132.615 18.4536 133.167 17.4222ZM129.747 20.5941C127.93 20.72 126.102 20.7186 124.284 20.6044C123.251 19.1415 122.331 17.603 121.538 16.0058C122.328 14.4119 123.24 12.8764 124.268 11.4158C126.088 11.2825 127.918 11.2821 129.737 11.4166C130.756 12.8771 131.668 14.4086 132.476 15.9881C131.677 17.5812 130.76 19.1198 129.747 20.5941ZM133.83 4.4666C135.701 5.51254 134.868 9.22726 134.46 10.8426C133.215 10.5641 131.863 10.3569 130.448 10.2281C129.624 9.09004 128.77 8.05518 127.912 7.15949C129.17 5.98441 131.978 3.43089 133.83 4.4666Z" fill="#53C1DE"/>
<path d="M150 4L164 28L178 4H172.5L164 18.5L155.5 4H150Z" fill="#41B883"/>
<path d="M155.5 4L164 18.5L172.5 4H167.5L164.065 10.0126L160.5 4H155.5Z" fill="#35495E"/>
</svg>
