<svg width="180" height="32" viewBox="0 0 180 32" fill="none" xmlns="http://www.w3.org/2000/svg">
<g clip-path="url(#clip0_15_197)">
<path d="M22.4456 5.02856L31.7714 12.8457L28.4342 19.6571L22.7656 18.1028H17.9199L22.4456 5.02856Z" fill="url(#paint0_linear_15_197)"/>
<path d="M13.0286 10.1029L11.2 19.6571L11.0171 22.9486L6.49143 24.9143L0 25.6L1.96571 4.89143L13.6686 0L20.8914 4.75429L13.0286 10.1029Z" fill="url(#paint1_linear_15_197)"/>
<path d="M13.0286 10.1028L13.8971 28.5714L10.9714 32L0 25.6L9.00571 12.16L13.0286 10.1028Z" fill="url(#paint2_linear_15_197)"/>
<path d="M25.0971 8.73143H13.9885L23.8171 0L25.0971 8.73143Z" fill="url(#paint3_linear_15_197)"/>
<path d="M32.0001 28.6171L22.2172 31.9543L9.23438 28.2971L13.0287 10.1029L14.5372 8.73143L22.4458 8L21.7144 15.9543L28.0229 13.5314L32.0001 28.6171Z" fill="url(#paint4_linear_15_197)"/>
<path d="M6.12573 6.12567H25.8743V25.8742H6.12573V6.12567Z" fill="black"/>
<path d="M8 22.1714H15.4057V23.4057H8V22.1714Z" fill="white"/>
<path d="M7.95434 8.73138H11.2458C13.2115 8.73138 14.4001 9.87424 14.4001 11.5657C14.4001 13.44 12.9372 14.4914 11.1086 14.4914H9.7372V16.9142H7.95435L7.95434 8.73138ZM11.1543 12.8457C12.0686 12.8457 12.5715 12.2514 12.5715 11.5657C12.5715 10.7428 12.0229 10.3314 11.1086 10.3314H9.7372V12.8457H11.1543Z" fill="white"/>
<path d="M15.1313 12.8457C15.1313 10.5142 16.8685 8.59424 19.3828 8.59424C20.9371 8.59424 21.8513 9.0971 22.6285 9.87424L21.4856 11.2C20.8456 10.6057 20.2056 10.2857 19.3828 10.2857C18.0113 10.2857 17.0056 11.4285 17.0056 12.8457C17.0056 14.2628 17.9656 15.36 19.3828 15.36C20.2971 15.36 20.8913 14.9942 21.5313 14.4L22.6742 15.5428C21.8513 16.4571 20.8913 17.0057 19.3371 17.0057C16.9142 17.0514 15.1313 15.1771 15.1313 12.8457Z" fill="white"/>
</g>
<path fill-rule="evenodd" clip-rule="evenodd" d="M50.0164 2C47.8193 2 46.0382 3.72453 46.0382 5.85185V8.51852H52.9235V9.25926H42.9781C40.7811 9.25926 39 10.9838 39 13.1111L39 18.8889C39 21.0162 40.7811 22.7407 42.9781 22.7407H45.2732V19.4815C45.2732 17.3542 47.0543 15.6296 49.2514 15.6296H56.5956C58.4547 15.6296 59.9617 14.1704 59.9617 12.3704V5.85185C59.9617 3.72453 58.1807 2 55.9836 2H50.0164ZM49.0984 6.74074C49.8589 6.74074 50.4754 6.14378 50.4754 5.40741C50.4754 4.67103 49.8589 4.07407 49.0984 4.07407C48.3378 4.07407 47.7213 4.67103 47.7213 5.40741C47.7213 6.14378 48.3378 6.74074 49.0984 6.74074Z" fill="url(#paint5_linear_15_197)"/>
<path fill-rule="evenodd" clip-rule="evenodd" d="M55.9837 30C58.1807 30 59.9618 28.2755 59.9618 26.1482V23.4815L53.0766 23.4815L53.0766 22.7408L63.0219 22.7408C65.219 22.7408 67.0001 21.0162 67.0001 18.8889V13.1111C67.0001 10.9838 65.219 9.25928 63.0219 9.25928L60.7268 9.25928V12.5185C60.7268 14.6459 58.9458 16.3704 56.7487 16.3704L49.4044 16.3704C47.5454 16.3704 46.0383 17.8296 46.0383 19.6296L46.0383 26.1482C46.0383 28.2755 47.8194 30 50.0165 30H55.9837ZM56.9017 25.2593C56.1412 25.2593 55.5247 25.8562 55.5247 26.5926C55.5247 27.329 56.1412 27.9259 56.9017 27.9259C57.6622 27.9259 58.2788 27.329 58.2788 26.5926C58.2788 25.8562 57.6622 25.2593 56.9017 25.2593Z" fill="url(#paint6_linear_15_197)"/>
<path d="M76.5854 17.4132C75.8049 16.6327 75.8049 15.3673 76.5854 14.5868L88.5868 2.58536C89.3673 1.80488 90.6327 1.80488 91.4132 2.58536L103.415 14.5868C104.195 15.3673 104.195 16.6327 103.415 17.4132L91.4132 29.4146C90.6327 30.1951 89.3673 30.1951 88.5868 29.4146L76.5854 17.4132Z" fill="#EE513B"/>
<path d="M86.1492 5.06165L84.9338 6.27699L88.0727 9.41589C87.9458 9.68831 87.8749 9.99213 87.8749 10.3125C87.8749 11.2221 88.4464 11.9982 89.2499 12.3014V19.9799C88.4464 20.283 87.8749 21.0592 87.8749 21.9688C87.8749 23.1424 88.8263 24.0938 89.9999 24.0938C91.1735 24.0938 92.1249 23.1424 92.1249 21.9688C92.1249 21.1441 91.6551 20.4292 90.9686 20.0769V12.3118L93.9692 15.3123C93.8484 15.5792 93.7811 15.8755 93.7811 16.1875C93.7811 17.3611 94.7325 18.3125 95.9061 18.3125C97.0797 18.3125 98.0311 17.3611 98.0311 16.1875C98.0311 15.0139 97.0797 14.0625 95.9061 14.0625C95.6781 14.0625 95.4584 14.0984 95.2525 14.1649L92.03 10.9424C92.0917 10.7434 92.1249 10.5318 92.1249 10.3125C92.1249 9.1389 91.1735 8.1875 89.9999 8.1875C89.7806 8.1875 89.569 8.22073 89.37 8.28242L86.1492 5.06165Z" fill="white"/>
<path d="M141 16C141 23.728 134.735 30 127 30C119.265 30 113 23.728 113 16C113 8.265 119.265 2 127 2C134.735 2 141 8.265 141 16Z" fill="white"/>
<path d="M122.307 21.91C122.182 21.7232 122.072 21.4713 121.983 21.1699C120.376 19.358 121.617 16.6916 122.845 14.881C122.963 14.6874 123.091 14.5004 123.23 14.3215C124.167 13.1577 124.409 12.3478 124.481 11.2521C124.49 11.0481 124.473 10.7781 124.454 10.4678C124.355 8.8837 124.19 6.25174 127.016 6.0184C130.549 5.72669 130.262 8.97105 130.235 10.8732C130.234 10.9519 130.233 11.0285 130.233 11.1024C130.223 12.249 130.821 13.0341 131.446 13.8535C131.674 14.1528 131.906 14.4566 132.112 14.7843C132.119 14.794 132.125 14.8038 132.131 14.8135C133.222 16.3877 134.3 18.737 132.8 20.9653C132.589 21.7259 132.27 22.424 131.844 22.9921C130.314 25.0052 128.954 24.8008 127.892 24.6412C127.572 24.5931 127.279 24.549 127.016 24.5711C126.58 24.5977 126.231 24.6682 125.929 24.7292C124.761 24.9648 124.305 25.0569 122.307 21.91Z" fill="black"/>
<path d="M129.014 7.7947C128.981 8.7271 127.992 9.53699 126.807 9.61186C125.621 9.68672 124.691 8.97891 124.724 8.04651C124.756 7.11412 125.746 6.30422 126.931 6.22936C128.117 6.1613 129.047 6.8623 129.014 7.7947Z" fill="url(#paint7_linear_15_197)"/>
<path fill-rule="evenodd" clip-rule="evenodd" d="M126.866 10.0611C126.875 10.5681 127.107 11.0004 127.433 11.1956C126.37 11.1003 125.051 11.4893 125.051 12.2253C125.035 13.4705 124.342 15.0197 123.843 16.1348C123.745 16.3545 123.654 16.5573 123.577 16.7376C123.269 17.5023 123.083 18.3201 123.061 19.1223C122.243 17.9949 122.838 16.5486 123.158 15.9209C123.585 15.0948 123.576 14.9918 123.411 15.1854C122.776 16.265 121.58 18.4334 123.077 19.7361C123.125 20.3178 123.267 20.8815 123.518 21.3996C125.523 25.4423 129.276 23.7816 130.514 21.6854C130.679 21.3874 130.812 21.0991 130.918 20.8205C130.98 20.8595 131.046 20.8897 131.117 20.9096C131.739 21.0933 132.669 20.3923 132.892 19.9568C133.16 19.3783 132.885 18.9835 131.968 18.5139C131.922 18.4908 131.875 18.469 131.83 18.4487C132.181 16.9678 131.212 15.4278 130.52 14.7744C130.391 14.7426 130.373 14.8158 130.573 15.0157C131.009 15.4335 131.957 16.923 131.444 18.3093C131.36 18.2866 131.278 18.2706 131.201 18.2618C131.043 17.316 130.623 16.5802 130.329 16.066C130.263 15.9495 130.203 15.8444 130.154 15.7508C130.055 15.5619 129.937 15.3663 129.811 15.1589C129.328 14.3596 128.739 13.3844 128.739 11.9395C128.665 11.6216 128.365 11.4096 127.966 11.2925C128.429 11.199 128.777 10.6575 128.765 10.0066C128.752 9.30564 128.313 8.74756 127.789 8.76117C127.265 8.77478 126.846 9.36008 126.866 10.0611ZM127.298 10.2176C127.291 10.6056 127.475 10.9186 127.717 10.9186C127.953 10.9186 128.156 10.6056 128.163 10.2244C128.169 9.83649 127.986 9.52343 127.743 9.52343C127.501 9.52343 127.304 9.83649 127.298 10.2176Z" fill="url(#paint8_linear_15_197)"/>
<path fill-rule="evenodd" clip-rule="evenodd" d="M125.556 11.15C125.936 11.1296 126.211 10.6192 126.178 10.0134C126.145 9.40772 125.811 8.93812 125.431 8.95854C125.051 8.97895 124.776 9.48939 124.809 10.0951C124.842 10.7008 125.176 11.1704 125.556 11.15ZM125.785 10.2244C125.818 10.5443 125.7 10.8165 125.529 10.8438C125.359 10.8642 125.195 10.626 125.163 10.3061C125.13 9.98622 125.248 9.71399 125.418 9.68676C125.588 9.66634 125.752 9.90455 125.785 10.2244Z" fill="url(#paint9_linear_15_197)"/>
<path d="M127.396 9.99981C127.377 10.2176 127.475 10.3945 127.612 10.4082C127.75 10.4218 127.881 10.2516 127.901 10.0406C127.92 9.82286 127.822 9.64591 127.685 9.63229C127.547 9.61868 127.416 9.78883 127.396 9.99981Z" fill="url(#paint10_linear_15_197)"/>
<path d="M125.641 10.0542C125.66 10.2312 125.588 10.3877 125.484 10.4013C125.379 10.4149 125.28 10.2788 125.261 10.0951C125.241 9.91811 125.313 9.76158 125.418 9.74797C125.523 9.73436 125.621 9.87728 125.641 10.0542Z" fill="url(#paint11_linear_15_197)"/>
<path d="M129.669 17.1528C129.669 18.3506 128.562 19.9023 126.663 19.8887C124.704 19.9023 123.872 18.3506 123.872 17.1528C123.872 15.9549 125.169 14.9817 126.768 14.9817C128.372 14.9885 129.669 15.9549 129.669 17.1528Z" fill="url(#paint12_linear_15_197)"/>
<path d="M128.634 13.3891C128.615 14.6278 127.835 14.9204 126.853 14.9204C125.87 14.9204 125.156 14.7367 125.071 13.3891C125.071 12.5452 125.87 12.0552 126.853 12.0552C127.835 12.0484 128.634 12.5384 128.634 13.3891Z" fill="url(#paint13_linear_15_197)"/>
<path d="M122.693 15.2947C123.335 14.2807 124.691 12.7221 122.949 15.5125C121.534 17.8129 122.425 19.2898 122.883 19.6981C124.206 20.9232 124.154 21.7467 123.112 21.1001C120.879 19.7185 121.344 17.3909 122.693 15.2947Z" fill="url(#paint14_linear_15_197)"/>
<path d="M131.988 15.7099C131.431 14.5189 129.663 11.4971 132.073 15.0089C134.267 18.1872 132.728 20.3991 132.453 20.6169C132.178 20.8347 131.254 21.2771 131.523 20.508C131.798 19.739 133.16 18.2825 131.988 15.7099Z" fill="url(#paint15_linear_15_197)"/>
<path d="M122.208 25.1019C120.741 24.2921 118.612 25.2585 119.385 23.067C119.542 22.5702 119.156 21.8215 119.405 21.3383C119.7 20.7462 120.335 20.8755 120.715 20.4808C121.088 20.0724 121.324 19.3646 122.025 19.4735C122.719 19.5824 123.184 20.4672 123.669 21.5561C124.029 22.332 125.3 23.4277 125.215 24.2989C125.11 25.6328 123.649 25.8846 122.208 25.1019Z" fill="url(#paint16_linear_15_197)"/>
<path fill-rule="evenodd" clip-rule="evenodd" d="M120.877 20.6403C120.52 21.0305 119.865 20.937 119.602 21.4476C119.433 21.7755 119.617 22.2795 119.642 22.6386C119.673 23.0822 119.305 23.7109 119.492 24.0898C119.703 24.5153 120.653 24.4601 121.071 24.5211C122.102 24.6718 123.806 26.0064 124.739 24.9413C125.65 23.9 123.898 22.5824 123.468 21.6567C123.189 21.0288 122.771 19.8248 121.992 19.7026C121.443 19.6174 121.193 20.2942 120.877 20.6403ZM122.058 19.2445C123.028 19.3965 123.513 20.6534 123.871 21.4571C124.414 22.6226 126.275 23.8753 125.069 25.253C123.973 26.5042 122.244 25.1603 121.009 24.9798C120.392 24.8897 119.419 24.9544 119.096 24.3014C118.818 23.7399 119.236 23.2314 119.197 22.6719C119.164 22.1951 118.976 21.6831 119.208 21.2305C119.525 20.5943 120.139 20.7484 120.555 20.319C120.998 19.8327 121.263 19.121 122.058 19.2445Z" fill="#E68C3F"/>
<path d="M132.381 24.7276C133.455 23.3733 135.846 23.6523 134.235 21.7943C133.894 21.3928 133.999 20.5352 133.58 20.1677C133.088 19.7185 132.545 20.0861 132.047 19.8547C131.549 19.6028 131.025 19.1196 130.416 19.4599C129.807 19.807 129.741 20.7054 129.682 21.8896C129.63 22.7403 128.883 24.1628 129.283 24.9454C129.859 26.1569 131.359 25.9935 132.381 24.7276Z" fill="url(#paint17_linear_15_197)"/>
<path fill-rule="evenodd" clip-rule="evenodd" d="M132.81 19.698C133.086 19.6907 133.415 19.71 133.725 19.9923C134.111 20.332 134.114 20.8865 134.26 21.3508C134.432 21.9007 135.035 22.2148 134.999 22.8595C134.94 23.9135 133.114 24.1673 132.552 24.8757C132.013 25.5445 131.33 25.9428 130.683 25.9964C129.7 26.0778 128.889 25.252 128.947 24.2437C128.993 23.4275 129.409 22.6859 129.46 21.8762C129.489 21.2898 129.521 20.7462 129.627 20.3048C129.734 19.8587 129.927 19.4746 130.309 19.2568C131.146 18.7892 131.954 19.7204 132.81 19.698ZM130.522 19.6635C130.296 19.7929 130.152 20.0314 130.059 20.4169C129.965 20.8071 129.935 21.3071 129.905 21.9044C129.855 22.716 129.438 23.457 129.392 24.2711C129.35 24.9971 129.908 25.5959 130.647 25.5346C131.149 25.493 131.728 25.1762 132.21 24.5795C132.64 24.0371 134.514 23.5335 134.553 22.8326C134.579 22.375 133.977 21.9457 133.836 21.4941C133.725 21.1406 133.719 20.593 133.436 20.3448C133.255 20.1793 133.065 20.1547 132.821 20.1611C132.117 20.1796 131.177 19.299 130.522 19.6635Z" fill="#E68C3F"/>
<path d="M131.916 22.9173C133.58 20.3651 132.342 20.3855 131.922 20.1881C131.503 19.9839 131.064 19.5824 130.573 19.8614C130.082 20.1473 130.056 20.8823 130.042 21.8487C130.023 22.5429 129.466 23.7067 129.8 24.3533C130.206 25.1087 131.189 24.013 131.916 22.9173Z" fill="url(#paint18_linear_15_197)"/>
<path d="M121.868 23.2848C119.379 21.6106 120.545 21.0389 120.918 20.7735C121.37 20.4332 121.377 19.7798 121.933 19.8411C122.49 19.9023 122.818 20.6169 123.191 21.5017C123.466 22.1346 124.423 22.9785 124.35 23.7068C124.259 24.5643 122.942 23.9994 121.868 23.2848Z" fill="url(#paint19_linear_15_197)"/>
<path d="M132.748 19.9363C132.551 20.2902 131.752 20.8483 131.222 20.6986C130.678 20.5557 130.429 19.7594 130.54 19.1605C130.639 18.4799 131.222 18.4459 131.955 18.7862C132.735 19.1537 132.977 19.4667 132.748 19.9363Z" fill="black"/>
<path d="M132.211 19.7389C132.086 19.9839 131.562 20.3719 131.195 20.2698C130.829 20.1677 130.645 19.6164 130.704 19.2013C130.757 18.7317 131.15 18.7044 131.647 18.9358C132.185 19.1945 132.355 19.4122 132.211 19.7389Z" fill="url(#paint20_linear_15_197)"/>
<path d="M125.438 10.8574C125.7 10.6056 126.335 9.8365 127.54 10.6396C127.763 10.7893 127.946 10.8029 128.372 10.9935C129.23 11.361 128.824 12.2458 127.907 12.5452C127.514 12.6745 127.16 13.1714 126.453 13.1237C125.844 13.0897 125.687 12.6745 125.313 12.4499C124.652 12.062 124.553 11.538 124.914 11.2589C125.274 10.9799 125.411 10.8778 125.438 10.8574Z" fill="url(#paint21_linear_15_197)"/>
<path fill-rule="evenodd" clip-rule="evenodd" d="M124.994 11.3703C124.857 11.4764 124.813 11.6175 124.858 11.7735C124.951 12.0938 125.622 12.5346 125.879 12.7502C126.025 12.8728 126.192 12.97 126.462 12.985C127.04 13.024 127.361 12.5793 127.867 12.4126C128.2 12.3039 128.905 11.8882 128.671 11.4119C128.472 11.0055 127.801 10.9804 127.468 10.7564C126.894 10.3742 126.477 10.377 126.179 10.4842C125.853 10.6017 125.289 11.1416 124.994 11.3703ZM126.092 10.2216C126.479 10.0821 126.982 10.1022 127.613 10.5229C128.028 10.8019 128.659 10.775 128.91 11.2858C129.229 11.9366 128.456 12.5116 127.948 12.6777C127.403 12.857 127.099 13.3062 126.445 13.2624C126.106 13.2433 125.889 13.1159 125.711 12.9664C125.341 12.6562 124.717 12.3614 124.574 11.8695C124.495 11.5967 124.611 11.3205 124.834 11.1475C125.195 10.8679 125.682 10.3691 126.092 10.2216Z" fill="#E68C3F"/>
<path fill-rule="evenodd" clip-rule="evenodd" d="M128.474 11.5669C128.477 11.618 128.439 11.6617 128.39 11.6645C127.697 11.7038 127.21 12.4949 126.427 12.4949C125.989 12.4949 125.642 12.2835 125.394 12.0803C125.344 12.0393 124.903 11.6994 124.903 11.6128C124.903 11.5616 124.943 11.5201 124.992 11.5201C125.084 11.5201 125.362 11.8217 125.466 11.9065C125.699 12.098 126.046 12.3096 126.427 12.3096C127.202 12.3096 127.677 11.5193 128.38 11.4794C128.43 11.4767 128.472 11.5158 128.474 11.5669Z" fill="#E68C3F"/>
<path d="M125.844 10.7893C125.975 10.6668 126.388 10.3333 126.931 10.6736C127.049 10.7416 127.167 10.8165 127.337 10.9186C127.685 11.1296 127.514 11.4358 127.095 11.6264C126.905 11.7081 126.591 11.885 126.355 11.8714C126.093 11.8442 125.916 11.6672 125.746 11.5515C125.425 11.3338 125.444 11.15 125.595 11.0071C125.706 10.8982 125.831 10.7961 125.844 10.7893Z" fill="url(#paint22_linear_15_197)"/>
<circle cx="164" cy="16" r="14" fill="#1794D4"/>
<path d="M166 7H164V9H166V7Z" fill="white"/>
<path d="M158 10H160V12H158V10Z" fill="white"/>
<path d="M154.002 16.9414C154.172 19.8427 155.9 24 162 24C168.8 24 171.833 19 172.5 16.5C173.333 16.5 175.2 16 176 14C175.5 13.5 173.5 13.5 172.5 14C172.5 13.2 172 11.5 171 11C170.333 11.6667 169.3 13.4 170.5 15C170 16 168.667 16 168 16H154.943C154.413 16 153.97 16.4128 154.002 16.9414Z" fill="white"/>
<path d="M157 13H155V15H157V13Z" fill="white"/>
<path d="M158 13H160V15H158V13Z" fill="white"/>
<path d="M163 13H161V15H163V13Z" fill="white"/>
<path d="M164 13H166V15H164V13Z" fill="white"/>
<path d="M169 13H167V15H169V13Z" fill="white"/>
<path d="M163 10H161V12H163V10Z" fill="white"/>
<path d="M164 10H166V12H164V10Z" fill="white"/>
<defs>
<linearGradient id="paint0_linear_15_197" x1="11.4276" y1="12.3639" x2="30.4712" y2="12.3639" gradientUnits="userSpaceOnUse">
<stop stop-color="#21D789"/>
<stop offset="1" stop-color="#07C3F2"/>
</linearGradient>
<linearGradient id="paint1_linear_15_197" x1="-11.227" y1="27.0085" x2="27.9863" y2="-1.93875" gradientUnits="userSpaceOnUse">
<stop offset="0.011" stop-color="#FCF84A"/>
<stop offset="0.112" stop-color="#A7EB62"/>
<stop offset="0.206" stop-color="#5FE077"/>
<stop offset="0.273" stop-color="#32DA84"/>
<stop offset="0.306" stop-color="#21D789"/>
<stop offset="0.577" stop-color="#21D789"/>
<stop offset="0.597" stop-color="#21D789"/>
<stop offset="0.686" stop-color="#20D68C"/>
<stop offset="0.763" stop-color="#1ED497"/>
<stop offset="0.835" stop-color="#19D1A9"/>
<stop offset="0.904" stop-color="#13CCC2"/>
<stop offset="0.971" stop-color="#0BC6E1"/>
<stop offset="1" stop-color="#07C3F2"/>
</linearGradient>
<linearGradient id="paint2_linear_15_197" x1="4.26514" y1="35.499" x2="10.8055" y2="14.976" gradientUnits="userSpaceOnUse">
<stop stop-color="#21D789"/>
<stop offset="0.164" stop-color="#24D788"/>
<stop offset="0.305" stop-color="#2FD886"/>
<stop offset="0.437" stop-color="#41DA82"/>
<stop offset="0.564" stop-color="#5ADC7D"/>
<stop offset="0.688" stop-color="#7AE077"/>
<stop offset="0.809" stop-color="#A1E36E"/>
<stop offset="0.925" stop-color="#CFE865"/>
<stop offset="1" stop-color="#F1EB5E"/>
</linearGradient>
<linearGradient id="paint3_linear_15_197" x1="12.9257" y1="17.6562" x2="27.1584" y2="-1.47932" gradientUnits="userSpaceOnUse">
<stop stop-color="#21D789"/>
<stop offset="0.061" stop-color="#24D788"/>
<stop offset="0.113" stop-color="#2FD886"/>
<stop offset="0.162" stop-color="#41DA82"/>
<stop offset="0.209" stop-color="#5ADD7D"/>
<stop offset="0.255" stop-color="#79E077"/>
<stop offset="0.258" stop-color="#7CE076"/>
<stop offset="0.499" stop-color="#8CE173"/>
<stop offset="0.925" stop-color="#B2E56B"/>
</linearGradient>
<linearGradient id="paint4_linear_15_197" x1="34.6922" y1="20.0914" x2="6.01518" y2="19.8258" gradientUnits="userSpaceOnUse">
<stop offset="0.387" stop-color="#FCF84A"/>
<stop offset="0.536" stop-color="#ECF451"/>
<stop offset="0.826" stop-color="#C2E964"/>
<stop offset="0.925" stop-color="#B2E56B"/>
</linearGradient>
<linearGradient id="paint5_linear_15_197" x1="49.4809" y1="2" x2="49.4809" y2="22.7407" gradientUnits="userSpaceOnUse">
<stop stop-color="#327EBD"/>
<stop offset="1" stop-color="#1565A7"/>
</linearGradient>
<linearGradient id="paint6_linear_15_197" x1="56.5192" y1="9.25928" x2="56.5192" y2="30" gradientUnits="userSpaceOnUse">
<stop stop-color="#FFDA4B"/>
<stop offset="1" stop-color="#F9C600"/>
</linearGradient>
<linearGradient id="paint7_linear_15_197" x1="127.058" y1="6.30635" x2="126.837" y2="9.30617" gradientUnits="userSpaceOnUse">
<stop stop-color="white" stop-opacity="0.8"/>
<stop offset="1" stop-color="white" stop-opacity="0"/>
</linearGradient>
<linearGradient id="paint8_linear_15_197" x1="123.897" y1="22.6723" x2="122.251" y2="17.2717" gradientUnits="userSpaceOnUse">
<stop stop-color="#FFEED7"/>
<stop offset="1" stop-color="#BDBFC2"/>
</linearGradient>
<linearGradient id="paint9_linear_15_197" x1="123.897" y1="22.6723" x2="122.251" y2="17.2717" gradientUnits="userSpaceOnUse">
<stop stop-color="#FFEED7"/>
<stop offset="1" stop-color="#BDBFC2"/>
</linearGradient>
<linearGradient id="paint10_linear_15_197" x1="127.668" y1="9.65564" x2="127.575" y2="10.3544" gradientUnits="userSpaceOnUse">
<stop stop-color="white" stop-opacity="0.65"/>
<stop offset="1" stop-color="white" stop-opacity="0"/>
</linearGradient>
<linearGradient id="paint11_linear_15_197" x1="125.434" y1="9.78294" x2="125.534" y2="10.3483" gradientUnits="userSpaceOnUse">
<stop stop-color="white" stop-opacity="0.65"/>
<stop offset="1" stop-color="white" stop-opacity="0"/>
</linearGradient>
<linearGradient id="paint12_linear_15_197" x1="126.762" y1="15.6308" x2="126.778" y2="19.6274" gradientUnits="userSpaceOnUse">
<stop stop-color="white" stop-opacity="0.8"/>
<stop offset="1" stop-color="white" stop-opacity="0"/>
</linearGradient>
<linearGradient id="paint13_linear_15_197" x1="126.85" y1="13.1247" x2="126.869" y2="14.7138" gradientUnits="userSpaceOnUse">
<stop stop-color="white" stop-opacity="0.65"/>
<stop offset="1" stop-color="white" stop-opacity="0"/>
</linearGradient>
<linearGradient id="paint14_linear_15_197" x1="122.719" y1="14.1055" x2="122.719" y2="19.9372" gradientUnits="userSpaceOnUse">
<stop stop-color="white" stop-opacity="0.65"/>
<stop offset="1" stop-color="white" stop-opacity="0"/>
</linearGradient>
<linearGradient id="paint15_linear_15_197" x1="132.033" y1="13.5359" x2="132.031" y2="18.8051" gradientUnits="userSpaceOnUse">
<stop stop-color="white" stop-opacity="0.65"/>
<stop offset="1" stop-color="white" stop-opacity="0"/>
</linearGradient>
<linearGradient id="paint16_linear_15_197" x1="122.428" y1="22.4373" x2="121.535" y2="25.4213" gradientUnits="userSpaceOnUse">
<stop stop-color="#FFA63F"/>
<stop offset="1" stop-color="#FFFF00"/>
</linearGradient>
<linearGradient id="paint17_linear_15_197" x1="130.881" y1="21.5298" x2="133.265" y2="24.7799" gradientUnits="userSpaceOnUse">
<stop stop-color="#FFA63F"/>
<stop offset="1" stop-color="#FFFF00"/>
</linearGradient>
<linearGradient id="paint18_linear_15_197" x1="131.52" y1="18.9332" x2="130.687" y2="22.8604" gradientUnits="userSpaceOnUse">
<stop stop-color="white" stop-opacity="0.65"/>
<stop offset="1" stop-color="white" stop-opacity="0"/>
</linearGradient>
<linearGradient id="paint19_linear_15_197" x1="122.246" y1="19.9044" x2="122.411" y2="24.3241" gradientUnits="userSpaceOnUse">
<stop stop-color="white" stop-opacity="0.65"/>
<stop offset="1" stop-color="white" stop-opacity="0"/>
</linearGradient>
<linearGradient id="paint20_linear_15_197" x1="131.375" y1="18.8617" x2="131.569" y2="20.1823" gradientUnits="userSpaceOnUse">
<stop stop-color="white" stop-opacity="0.65"/>
<stop offset="1" stop-color="white" stop-opacity="0"/>
</linearGradient>
<linearGradient id="paint21_linear_15_197" x1="126.765" y1="10.7838" x2="126.781" y2="13.1096" gradientUnits="userSpaceOnUse">
<stop stop-color="#FFA63F"/>
<stop offset="1" stop-color="#FFFF00"/>
</linearGradient>
<linearGradient id="paint22_linear_15_197" x1="126.51" y1="10.5638" x2="126.506" y2="11.7936" gradientUnits="userSpaceOnUse">
<stop stop-color="white" stop-opacity="0.65"/>
<stop offset="1" stop-color="white" stop-opacity="0"/>
</linearGradient>
<clipPath id="clip0_15_197">
<rect width="32" height="32" fill="white"/>
</clipPath>
</defs>
</svg>
